<?xml version="1.0" standalone="no"?>
<!DOCTYPE svg PUBLIC "-//W3C//DTD SVG 20010904//EN"
 "http://www.w3.org/TR/2001/REC-SVG-20010904/DTD/svg10.dtd">
<svg version="1.0" xmlns="http://www.w3.org/2000/svg"
 width="512.000000pt" height="512.000000pt" viewBox="0 0 512.000000 512.000000"
 preserveAspectRatio="xMidYMid meet">

<g transform="translate(0.000000,512.000000) scale(0.100000,-0.100000)"
fill="#000000" stroke="none">
<path d="M2531 4375 c-1179 -233 -2155 -428 -2168 -434 -13 -6 -55 -11 -93
-11 -62 0 -70 -2 -89 -26 l-21 -27 0 -1794 0 -1794 25 -24 24 -25 2351 0 2351
0 24 25 25 24 0 1511 0 1511 -25 24 -24 25 -1683 1 -1683 1 220 44 c121 25
506 101 855 170 349 69 784 154 965 190 182 36 479 94 660 130 608 119 618
122 638 145 9 12 17 33 17 48 0 14 -29 172 -64 350 -68 351 -73 362 -135 360
-14 0 -991 -191 -2170 -424z m2152 13 c26 -127 46 -233 44 -234 -1 -2 -25 -6
-52 -9 l-50 -6 -188 201 c-103 111 -186 204 -184 206 6 6 329 72 358 73 l26 1
46 -232z m-437 -77 c102 -109 185 -203 183 -207 -4 -7 -464 -104 -496 -104
-12 0 -395 402 -389 408 4 3 483 100 503 101 7 1 96 -89 199 -198z m-702 -142
c133 -143 184 -204 175 -209 -8 -4 -123 -29 -257 -55 l-244 -48 -27 29 c-158
164 -351 377 -347 382 6 5 468 100 496 101 9 1 100 -90 204 -200z m-705 -141
c104 -112 189 -204 187 -205 -3 -3 -495 -103 -507 -103 -9 0 -384 398 -384
407 0 6 453 100 492 102 17 1 71 -51 212 -201z m-706 -139 c104 -111 187 -203
184 -205 -2 -2 -118 -27 -257 -55 l-253 -51 -32 34 c-113 117 -345 370 -345
376 0 7 445 99 490 101 21 1 61 -37 213 -200z m-747 -96 c81 -87 167 -179 191
-204 l44 -46 -258 -52 -258 -52 -99 103 c-160 167 -289 308 -285 311 8 6 465
95 490 96 22 1 53 -27 175 -156z m-676 -529 c146 -278 266 -512 268 -519 3
-13 -43 -15 -327 -15 l-331 0 0 520 0 520 63 0 62 0 265 -506z m193 151 c5
-10 -5 -15 -34 -20 -22 -4 -42 -5 -43 -3 -2 1 -32 57 -66 123 l-63 120 99
-104 c54 -57 102 -109 107 -116z m317 -446 c80 -127 147 -235 148 -240 2 -5
-40 -9 -95 -9 l-98 0 -122 235 c-68 128 -123 236 -123 239 0 3 33 6 73 6 l73
0 144 -231z m721 0 c79 -128 146 -236 147 -240 2 -5 -115 -9 -260 -9 l-264 0
-145 231 c-79 127 -145 235 -147 240 -2 5 113 9 260 9 l265 0 144 -231z m720
0 c79 -127 146 -235 147 -240 2 -5 -113 -9 -260 -9 l-265 0 -144 231 c-79 128
-145 236 -147 240 -2 5 115 9 260 9 l264 0 145 -231z m719 -1 c80 -127 147
-235 148 -240 2 -4 -115 -8 -260 -8 l-264 0 -144 231 c-80 127 -146 235 -148
240 -2 5 107 9 260 9 l263 0 145 -232z m720 0 c80 -127 147 -235 148 -240 2
-4 -115 -8 -261 -8 l-264 0 -144 231 c-79 128 -145 236 -147 240 -2 5 115 9
260 9 l263 0 145 -232z m700 -8 l0 -240 -178 0 -178 0 -147 235 c-81 129 -147
237 -147 240 0 3 146 5 325 5 l325 0 0 -240z m0 -1480 l0 -1080 -2240 0 -2240
0 0 1080 0 1080 2240 0 2240 0 0 -1080z"/>
<path d="M3275 2386 c-63 -27 -76 -56 -183 -413 -56 -187 -102 -358 -102 -380
0 -45 28 -94 73 -127 26 -19 45 -21 187 -24 l159 -3 -14 -39 c-30 -86 -29
-148 4 -285 36 -147 59 -187 129 -217 61 -27 197 -23 238 8 63 46 69 63 74
218 l5 142 100 167 100 167 273 0 273 0 24 25 25 24 0 351 0 351 -25 24 -24
25 -643 0 c-512 -1 -649 -3 -673 -14z m645 -415 l0 -270 -107 -178 c-59 -97
-113 -193 -119 -213 -8 -20 -13 -84 -14 -152 l0 -118 -45 0 c-54 0 -56 2 -86
136 l-23 102 37 115 c20 63 37 124 37 136 0 12 -11 33 -25 46 -24 25 -25 25
-225 25 -187 0 -201 1 -196 18 3 9 44 148 91 307 47 160 88 296 90 303 3 9 71
12 295 12 l290 0 0 -269z m560 29 l0 -240 -200 0 -200 0 0 240 0 240 200 0
200 0 0 -240z"/>
<path d="M1375 2066 c-37 -16 -70 -52 -84 -89 -6 -16 -11 -84 -11 -151 l0
-123 -102 -171 -102 -172 -274 0 -273 0 -24 -25 -25 -24 0 -351 0 -351 25 -24
24 -25 641 0 c698 0 682 -1 731 57 30 36 229 687 229 750 0 45 -28 94 -73 127
-26 19 -45 21 -187 24 l-159 3 14 39 c30 86 29 148 -4 285 -36 145 -59 186
-125 216 -49 22 -175 25 -221 5z m164 -163 c5 -10 19 -64 32 -119 l23 -102
-37 -115 c-20 -63 -37 -124 -37 -136 0 -12 11 -33 25 -46 24 -25 25 -25 225
-25 187 0 201 -1 196 -17 -19 -66 -133 -446 -157 -525 l-30 -98 -289 0 -290 0
0 269 0 270 107 178 c59 97 113 193 119 213 8 20 13 84 14 153 l0 117 45 0
c32 0 47 -5 54 -17z m-499 -943 l0 -240 -200 0 -200 0 0 240 0 240 200 0 200
0 0 -240z"/>
</g>
</svg>
